# xmcd
# 
# Track frame offsets:
#     150
#     81449
#     109569
#     134519
#     160760
#     179852
#     193173
#     206466
#     231511
# 
# Disc length: 3322
# 
# Revision: 0
# Processed by: cddbd v1.5.2PL0 Copyright (c) Steve Scherf et al.
# Submitted via: BonkEnc v1.0.5
# 
DISCID=830cf809
DTITLE=North Mississippi Allstars - Keep On Marchin' - Disc 2
DYEAR=2007
DGENRE=Blues
TTITLE0=Georgia Women > Po Black Maddie > Skinny Woman
TTITLE1=Psychedelic Sex Machine
TTITLE2=No Mo
TTITLE3=Stompin' My Foot
TTITLE4=Write Me A Few Lines
TTITLE5=Po Boy (Long Way From Home)
TTITLE6=Snake Drive
TTITLE7=Horseshoe
TTITLE8=Freedom Highway
EXTD=
EXTT0=
EXTT1=
EXTT2=
EXTT3=
EXTT4=
EXTT5=
EXTT6=
EXTT7=
EXTT8=
PLAYORDER=
